<svg width="1753" height="1082" viewBox="0 0 1753 1082" fill="none" xmlns="http://www.w3.org/2000/svg">
<g id="undraw_happy_birthday_s72n 1 (1) 1">
<g id="undraw happy birthday s72n 1">
<g id="left balloon">
<path id="Vector" d="M733.186 626.482C732.115 639.822 741.195 653.292 753.911 657.36C759.248 659.062 764.993 659.24 770.235 661.209C781.623 665.479 788.306 677.014 794.076 687.717C800.704 700.022 807.51 713.076 807.049 727.039C806.754 735.945 803.481 744.489 802.511 753.351C801.702 760.772 802.515 768.281 804.893 775.358C806.158 779.113 807.996 782.863 811.27 785.147C815.988 788.401 822.255 787.653 827.98 787.415C840.109 787.029 852.157 789.523 863.136 794.692C874.115 799.863 883.712 807.562 891.14 817.157" stroke="#615353" stroke-width="2" stroke-miterlimit="10"/>
<path id="Vector 2" d="M747.76 629.14H721.28L725.92 613.26H741.8L747.76 629.14Z" fill="#FF2700"/>
<path id="Vector 3" d="M843.72 459.865C843.72 520.545 794.53 609.435 733.86 609.435C673.19 609.435 624 520.535 624 459.865C624 430.727 635.575 402.782 656.179 382.179C676.782 361.575 704.727 350 733.865 350C763.003 350 790.948 361.575 811.551 382.179C832.155 402.782 843.73 430.727 843.73 459.865H843.72Z" fill="#FF0000"/>
<path id="Vector 4" d="M741.8 613.92H725.92L716.65 608.63H751.07L741.8 613.92Z" fill="black"/>
<path id="Vector 5" opacity="0.1" d="M694.15 376.32C694.15 376.32 647.82 401.47 641.2 451.77L694.15 376.32Z" fill="white"/>
</g>
<g id="center balloon">
<path id="Vector 6" d="M881.25 524.94C871.54 538.54 861.45 553.07 860.6 569.72C859.33 595.31 879.8 616.24 888.94 640.18C892.901 650.726 894.694 661.962 894.211 673.216C893.729 684.471 890.98 695.513 886.13 705.68C881.67 714.9 875.31 724.06 876.13 734.27C876.6 740.5 879.72 746.17 882.23 751.9C888.39 766.26 891.078 781.871 890.076 797.465C889.073 813.059 884.409 828.197 876.46 841.65" stroke="#535461" stroke-width="2" stroke-miterlimit="10"/>
<path id="Vector 7" d="M891.43 532.56H864.95L869.59 516.68H885.47L891.43 532.56Z" fill="#0500FF"/>
<path id="Vector 8" d="M985.72 365.865C985.72 426.545 936.53 515.435 875.86 515.435C815.19 515.435 766 426.535 766 365.865C766 336.727 777.575 308.782 798.179 288.179C818.782 267.575 846.727 256 875.865 256C905.003 256 932.948 267.575 953.551 288.179C974.155 308.782 985.73 336.727 985.73 365.865H985.72Z" fill="#0F00FF"/>
<path id="Vector 9" d="M885.47 517.34H869.59L860.32 512.04H894.74L885.47 517.34Z" fill="black"/>
<path id="Vector 10" opacity="0.1" d="M837.82 279.74C837.82 279.74 791.49 304.89 784.87 355.19L837.82 279.74Z" fill="white"/>
</g>
<g id="righ balloon">
<path id="Vector 11" d="M1022.27 653.765L1018.15 692.116C1017.59 697.21 1016.86 702.734 1013.35 706.408C1010.03 709.868 1005.08 710.752 1000.89 712.917C987.129 720.044 983.943 738.917 984.522 754.78C985.102 770.644 987.176 788.016 978.37 801.15C974.732 806.569 969.559 810.653 965.315 815.554C958.042 823.925 953.516 834.474 952.414 845.622" stroke="#3D3D3D" stroke-width="2" stroke-miterlimit="10"/>
<path id="Vector 12" d="M1033.89 655.71H1007.41L1012.05 639.82H1027.93L1033.89 655.71Z" fill="#FF017B"/>
<path id="Vector 13" d="M1129.85 488.26C1129.85 548.94 1080.66 637.83 1019.99 637.83C959.32 637.83 910.12 548.94 910.12 488.26C910.12 459.122 921.695 431.177 942.299 410.574C962.902 389.97 990.847 378.395 1019.98 378.395C1049.12 378.395 1077.07 389.97 1097.67 410.574C1118.28 431.177 1129.85 459.122 1129.85 488.26Z" fill="#FF008A"/>
<path id="Vector 14" d="M1027.93 640.48H1012.05L1002.78 635.19H1037.2L1027.93 640.48Z" fill="black"/>
<path id="Vector 15" opacity="0.1" d="M980.28 402.88C980.28 402.88 933.95 428.03 927.33 478.33L980.28 402.88Z" fill="white"/>
</g>
<g id="box">
<path id="Vector 16" d="M1012 765H744V962.999H1012V765Z" fill="#535461"/>
<path id="Vector 17" d="M903 765H853V963H903V765Z" fill="#FF1717"/>
</g>
<g id="cover">
<path id="Vector 18" opacity="0.1" d="M1012 745H744V803H1012V745Z" fill="#181818"/>
<path id="Vector 19" d="M1027.24 736.024H728V790.434H1027.24V736.024Z" fill="#484646"/>
<path id="Vector 20" d="M902.87 736.024H852.35V790.434H902.87V736.024Z" fill="#FA1A1A"/>
<path id="Vector 21" opacity="0.5" d="M939.1 680.574C932.73 674.184 923.44 671.644 912.94 673.414C903.12 675.074 893.29 680.414 885.27 688.414C882.947 690.75 880.994 693.428 879.48 696.354C878.005 693.329 876.069 690.553 873.74 688.124C865.86 679.974 856.12 674.484 846.29 672.684C835.83 670.684 826.5 673.114 820.01 679.394C813.52 685.674 810.86 694.924 812.48 705.444C814 715.284 819.18 725.194 827.07 733.324C843.65 750.434 876.74 743.754 878.14 743.454L878.55 743.364L879.82 743.654C881.22 743.974 914.19 751.224 931.06 734.404C939.06 726.404 944.43 716.594 946.13 706.774C947.98 696.264 945.47 686.974 939.1 680.574ZM872.58 733.574C864.58 734.654 844.65 736.114 834.76 725.904C828.4 719.334 824.24 711.494 823.05 703.804C821.97 696.804 823.53 690.804 827.47 687.024C829.008 685.548 830.846 684.423 832.86 683.724C836.582 682.521 840.556 682.321 844.38 683.144C852.02 684.574 859.74 688.974 866.1 695.544C875.99 705.684 873.91 725.604 872.58 733.564V733.574ZM935.69 704.964C934.37 712.624 930.08 720.404 923.6 726.854C913.53 736.854 893.6 735.084 885.65 733.854C884.46 725.854 882.72 705.964 892.79 695.924C899.27 689.474 907.06 685.204 914.72 683.924C918.558 683.167 922.529 683.436 926.23 684.704C928.235 685.438 930.056 686.598 931.57 688.104C935.43 691.974 936.89 697.954 935.69 704.954V704.964Z" fill="url(#paint0_linear)"/>
<path id="Vector 22" d="M876.71 741.414L876.01 738.274C875.71 736.934 868.87 705.364 885.01 689.274C892.69 681.624 902.09 676.534 911.49 674.944C921.49 673.244 930.42 675.674 936.49 681.794C942.56 687.914 944.99 696.794 943.26 706.794C941.64 716.184 936.52 725.574 928.84 733.224C912.7 749.314 881.15 742.374 879.84 742.074L876.71 741.414ZM924.21 685.684C920.673 684.472 916.879 684.213 913.21 684.934C905.87 686.174 898.42 690.264 892.21 696.434C882.57 706.044 884.21 725.084 885.38 732.724C893.01 733.884 912.06 735.614 921.69 726.014C927.89 719.834 931.99 712.394 933.26 705.014C934.41 698.324 933.01 692.594 929.31 688.884C927.86 687.464 926.12 686.372 924.21 685.684Z" fill="#FA1A1A"/>
<path id="Vector 23" d="M881.39 741.274L878.24 741.934C876.9 742.214 845.24 748.604 829.37 732.234C821.83 724.454 816.87 714.974 815.37 705.554C813.81 695.484 816.37 686.634 822.57 680.624C828.77 674.614 837.7 672.334 847.71 674.204C857.08 675.954 866.4 681.204 873.94 688.994C889.8 705.364 882.42 736.814 882.1 738.144L881.39 741.274ZM834.86 684.784C832.932 685.453 831.172 686.531 829.7 687.944C825.94 691.594 824.44 697.294 825.47 704.004C826.61 711.354 830.59 718.864 836.68 725.154C846.15 734.924 865.22 733.524 872.87 732.494C874.14 724.884 876.14 705.864 866.67 696.094C860.58 689.814 853.2 685.594 845.88 684.234C842.222 683.445 838.421 683.635 834.86 684.784Z" fill="#FA1A1A"/>
</g>
</g>
</g>
<defs>
<linearGradient id="paint0_linear" x1="86634.9" y1="43787.4" x2="86634.9" y2="38388.9" gradientUnits="userSpaceOnUse">
<stop stop-color="#808080" stop-opacity="0.25"/>
<stop offset="0.54" stop-color="#808080" stop-opacity="0.12"/>
<stop offset="1" stop-color="#808080" stop-opacity="0.1"/>
</linearGradient>
</defs>
</svg>
